<svg width="130" height="30" viewBox="0 0 130 30" fill="none" xmlns="http://www.w3.org/2000/svg">
<path d="M36.24 1.564V3.958C36.24 5.582 36.114 6.842 35.792 7.934C35.568 8.676 35.218 9.362 34.868 10.006L34.168 10.034L34.238 13.268H35.19L35.274 11H41.224L41.308 13.268H42.26L42.344 10.034L41.518 10.006V1.564H36.24ZM37.374 2.572H40.3V9.992H36.128C36.394 9.488 36.702 8.858 36.898 8.2C37.234 7.136 37.374 5.862 37.374 4.35V2.572ZM48.6687 6.842C48.6687 5.498 48.1647 4.084 46.0927 4.084C45.2387 4.084 44.4127 4.322 43.8527 4.672L44.1327 5.498C44.6087 5.176 45.2667 4.994 45.9107 4.994C47.2967 4.98 47.4507 6.002 47.4507 6.548V6.688C44.8327 6.674 43.3767 7.57 43.3767 9.208C43.3767 10.188 44.0767 11.154 45.4487 11.154C46.4147 11.154 47.1427 10.678 47.5207 10.146H47.5627L47.6607 11H48.7667C48.6967 10.538 48.6687 9.964 48.6687 9.376V6.842ZM47.4787 8.718C47.4787 8.83 47.4647 8.97 47.4227 9.11C47.2267 9.684 46.6527 10.244 45.7567 10.244C45.1407 10.244 44.6087 9.88 44.6087 9.068C44.6087 7.752 46.1347 7.514 47.4787 7.542V8.718ZM50.6626 13.772H51.8806V10.09H51.9086C52.3146 10.762 53.0986 11.154 53.9946 11.154C55.5906 11.154 57.0886 9.95 57.0886 7.514C57.0886 5.47 55.8566 4.084 54.2046 4.084C53.0986 4.084 52.2866 4.56 51.7966 5.386H51.7686L51.6986 4.224H50.6066C50.6346 4.868 50.6626 5.568 50.6626 6.436V13.772ZM51.8806 7.066C51.8806 6.912 51.9226 6.73 51.9646 6.576C52.1886 5.652 52.9866 5.064 53.8266 5.064C55.1286 5.064 55.8426 6.226 55.8426 7.57C55.8426 9.124 55.0866 10.188 53.7846 10.188C52.9026 10.188 52.1606 9.6 51.9366 8.746C51.8946 8.592 51.8806 8.424 51.8806 8.242V7.066ZM58.5913 4.224V11H60.0193C60.7333 9.81 61.4893 8.508 62.1333 7.458C62.5393 6.772 62.8193 6.226 63.2673 5.344H63.2953C63.2393 6.45 63.2113 7.024 63.2113 8.13V11H64.3873V4.224H62.9453L60.8313 7.724C60.3693 8.508 60.1453 8.984 59.7253 9.81L59.6833 9.796C59.7393 8.83 59.7673 8.144 59.7673 7.08V4.224H58.5913ZM65.9513 11H67.0853L67.2673 7.794C67.3093 7.052 67.3373 6.156 67.3653 5.358H67.4213C67.5893 5.988 67.8833 6.968 68.1073 7.598L69.3113 10.958H70.1933L71.4953 7.542C71.8733 6.492 72.0693 5.96 72.2513 5.344H72.2933C72.3213 6.17 72.3773 7.024 72.4053 7.766L72.5593 11H73.7353L73.2593 4.224H71.7333L70.6553 7.178C70.3753 7.92 69.9973 8.984 69.8433 9.502H69.8153C69.6613 8.97 69.3813 8.144 69.1993 7.64L67.9813 4.224H66.4693L65.9513 11ZM78.2935 4.224V11H79.5115V8.018H79.7495C80.8835 8.018 81.5135 8.522 81.9755 9.614C82.1995 10.174 82.4235 10.706 82.6055 11H83.8935C83.5855 10.454 83.3615 9.796 83.1795 9.348C82.6475 8.13 81.9895 7.402 80.8975 7.276L83.8375 4.224H82.3395L79.8055 7.164H79.5115V4.224H78.2935ZM89.8894 6.842C89.8894 5.498 89.3854 4.084 87.3134 4.084C86.4594 4.084 85.6334 4.322 85.0734 4.672L85.3534 5.498C85.8294 5.176 86.4874 4.994 87.1314 4.994C88.5174 4.98 88.6714 6.002 88.6714 6.548V6.688C86.0534 6.674 84.5974 7.57 84.5974 9.208C84.5974 10.188 85.2974 11.154 86.6694 11.154C87.6354 11.154 88.3634 10.678 88.7414 10.146H88.7834L88.8814 11H89.9874C89.9174 10.538 89.8894 9.964 89.8894 9.376V6.842ZM88.6994 8.718C88.6994 8.83 88.6854 8.97 88.6434 9.11C88.4474 9.684 87.8734 10.244 86.9774 10.244C86.3614 10.244 85.8294 9.88 85.8294 9.068C85.8294 7.752 87.3554 7.514 88.6994 7.542V8.718ZM91.8833 13.772H93.1013V10.09H93.1293C93.5353 10.762 94.3193 11.154 95.2153 11.154C96.8113 11.154 98.3093 9.95 98.3093 7.514C98.3093 5.47 97.0773 4.084 95.4253 4.084C94.3193 4.084 93.5073 4.56 93.0173 5.386H92.9893L92.9193 4.224H91.8273C91.8553 4.868 91.8833 5.568 91.8833 6.436V13.772ZM93.1013 7.066C93.1013 6.912 93.1433 6.73 93.1853 6.576C93.4093 5.652 94.2073 5.064 95.0473 5.064C96.3493 5.064 97.0633 6.226 97.0633 7.57C97.0633 9.124 96.3073 10.188 95.0053 10.188C94.1233 10.188 93.3813 9.6 93.1573 8.746C93.1153 8.592 93.1013 8.424 93.1013 8.242V7.066ZM98.8627 4.224V5.19H100.977V11H102.209V5.19H104.323V4.224H98.8627ZM105.363 4.224V11H106.791C107.505 9.81 108.261 8.508 108.905 7.458C109.311 6.772 109.591 6.226 110.039 5.344H110.067C110.011 6.45 109.983 7.024 109.983 8.13V11H111.159V4.224H109.717L107.603 7.724C107.141 8.508 106.917 8.984 106.497 9.81L106.455 9.796C106.511 8.83 106.539 8.144 106.539 7.08V4.224H105.363ZM113.115 4.224V11H114.347V7.934H117.553V11H118.785V4.224H117.553V6.954H114.347V4.224H113.115ZM120.757 4.224V10.972C121.275 11.028 121.905 11.07 122.577 11.07C123.473 11.07 124.565 10.916 125.307 10.286C125.741 9.922 126.021 9.432 126.021 8.718C126.021 7.038 124.537 6.436 123.081 6.436C122.633 6.436 122.241 6.478 121.989 6.52V4.224H120.757ZM121.975 7.402C122.227 7.346 122.535 7.318 122.885 7.318C123.809 7.318 124.789 7.654 124.789 8.746C124.789 9.81 123.781 10.188 122.829 10.188C122.493 10.188 122.227 10.174 121.975 10.132V7.402ZM126.875 4.224V11H128.093V4.224H126.875ZM34.98 26C35.344 26.028 36.142 26.084 36.898 26.084C38.228 26.084 40.468 25.86 40.468 24.082C40.468 23.102 39.74 22.556 38.746 22.416V22.388C39.516 22.22 40.16 21.688 40.16 20.848C40.16 19.35 38.284 19.154 37.136 19.154C36.352 19.154 35.47 19.224 34.98 19.308V26ZM36.17 20.064C36.45 20.036 36.702 20.008 37.122 20.008C38.354 20.008 38.942 20.33 38.942 21.002C38.942 21.814 38.004 22.08 37.094 22.08H36.17V20.064ZM36.156 22.878H37.052C38.214 22.878 39.208 23.088 39.208 24.068C39.208 25.062 37.976 25.244 37.136 25.244C36.758 25.244 36.506 25.23 36.156 25.202V22.878ZM45.0308 16.564V26H46.3328L49.2868 21.296C49.9308 20.26 50.5748 19.168 51.0368 18.132L51.0788 18.146C50.9808 19.336 50.9668 20.456 50.9668 21.982V26H52.1148V16.564H50.8968L47.8448 21.422C47.1588 22.542 46.5708 23.564 46.1088 24.544L46.0668 24.53C46.1508 23.27 46.1788 22.024 46.1788 20.54V16.564H45.0308ZM54.1616 19.224V26H55.3936V22.934H58.5996V26H59.8316V19.224H58.5996V21.954H55.3936V19.224H54.1616ZM66.4662 24.838C66.1162 24.992 65.6542 25.16 64.9542 25.16C63.6102 25.16 62.6022 24.194 62.6022 22.626C62.6022 21.226 63.4422 20.064 64.9962 20.064C65.6682 20.064 66.1302 20.232 66.4242 20.386L66.7042 19.448C66.3682 19.266 65.7242 19.084 64.9962 19.084C62.7842 19.084 61.3562 20.61 61.3562 22.696C61.3562 24.768 62.6862 26.154 64.7302 26.154C65.6402 26.154 66.3542 25.916 66.6762 25.762L66.4662 24.838ZM67.4584 19.224V20.19H69.5724V26H70.8044V20.19H72.9184V19.224H67.4584ZM78.6648 21.842C78.6648 20.498 78.1608 19.084 76.0888 19.084C75.2348 19.084 74.4088 19.322 73.8488 19.672L74.1288 20.498C74.6048 20.176 75.2628 19.994 75.9068 19.994C77.2928 19.98 77.4468 21.002 77.4468 21.548V21.688C74.8288 21.674 73.3728 22.57 73.3728 24.208C73.3728 25.188 74.0728 26.154 75.4448 26.154C76.4108 26.154 77.1388 25.678 77.5168 25.146H77.5588L77.6568 26H78.7628C78.6928 25.538 78.6648 24.964 78.6648 24.376V21.842ZM77.4748 23.718C77.4748 23.83 77.4608 23.97 77.4188 24.11C77.2228 24.684 76.6488 25.244 75.7528 25.244C75.1368 25.244 74.6048 24.88 74.6048 24.068C74.6048 22.752 76.1308 22.514 77.4748 22.542V23.718ZM80.6307 19.224V26H81.8487V20.204H84.7887V19.224H80.6307ZM85.9497 28.772H87.1677V25.09H87.1957C87.6017 25.762 88.3857 26.154 89.2817 26.154C90.8777 26.154 92.3757 24.95 92.3757 22.514C92.3757 20.47 91.1437 19.084 89.4917 19.084C88.3857 19.084 87.5737 19.56 87.0837 20.386H87.0557L86.9857 19.224H85.8937C85.9217 19.868 85.9497 20.568 85.9497 21.436V28.772ZM87.1677 22.066C87.1677 21.912 87.2097 21.73 87.2517 21.576C87.4757 20.652 88.2737 20.064 89.1137 20.064C90.4157 20.064 91.1297 21.226 91.1297 22.57C91.1297 24.124 90.3737 25.188 89.0717 25.188C88.1897 25.188 87.4477 24.6 87.2237 23.746C87.1817 23.592 87.1677 23.424 87.1677 23.242V22.066ZM98.6804 21.842C98.6804 20.498 98.1764 19.084 96.1044 19.084C95.2504 19.084 94.4244 19.322 93.8644 19.672L94.1444 20.498C94.6204 20.176 95.2784 19.994 95.9224 19.994C97.3084 19.98 97.4624 21.002 97.4624 21.548V21.688C94.8444 21.674 93.3884 22.57 93.3884 24.208C93.3884 25.188 94.0884 26.154 95.4604 26.154C96.4264 26.154 97.1544 25.678 97.5324 25.146H97.5744L97.6724 26H98.7784C98.7084 25.538 98.6804 24.964 98.6804 24.376V21.842ZM97.4904 23.718C97.4904 23.83 97.4764 23.97 97.4344 24.11C97.2384 24.684 96.6644 25.244 95.7684 25.244C95.1524 25.244 94.6204 24.88 94.6204 24.068C94.6204 22.752 96.1464 22.514 97.4904 22.542V23.718ZM100.24 26H101.374L101.556 22.794C101.598 22.052 101.626 21.156 101.654 20.358H101.71C101.878 20.988 102.172 21.968 102.396 22.598L103.6 25.958H104.482L105.784 22.542C106.162 21.492 106.358 20.96 106.54 20.344H106.582C106.61 21.17 106.666 22.024 106.694 22.766L106.848 26H108.024L107.548 19.224H106.022L104.944 22.178C104.664 22.92 104.286 23.984 104.132 24.502H104.104C103.95 23.97 103.67 23.144 103.488 22.64L102.27 19.224H100.758L100.24 26Z" fill="white"/>
<path fill-rule="evenodd" clip-rule="evenodd" d="M5.00623 4.06282C2.43117 4.41908 0.41028 6.45585 0.0636806 9.04423C-0.0212269 9.67839 -0.0212269 19.3177 0.0636806 19.9518C0.235299 21.2333 0.800707 22.379 1.71062 23.2891C2.61804 24.1967 3.76952 24.7651 5.04723 24.9363C5.68127 25.0212 15.3187 25.0212 15.9528 24.9363C18.5592 24.5871 20.5872 22.5588 20.9363 19.9518C21.0212 19.3177 21.0212 9.67839 20.9363 9.04423C20.5872 6.43727 18.5592 4.40891 15.9528 4.05974C15.3442 3.97822 5.59792 3.98097 5.00623 4.06282ZM15.5095 5.88738C16.5121 5.98247 17.3343 6.3692 18.0072 7.0622C18.6642 7.73884 19.0168 8.51505 19.109 9.48759C19.1648 10.0759 19.1648 18.9202 19.109 19.5085C19.0168 20.481 18.6642 21.2572 18.0072 21.9338C17.3343 22.6268 16.5121 23.0136 15.5095 23.1087C14.9213 23.1644 6.07866 23.1644 5.4905 23.1087C4.48793 23.0136 3.66575 22.6268 2.99284 21.9338C2.33581 21.2572 1.98318 20.481 1.89097 19.5085C1.83522 18.9202 1.83522 10.0759 1.89097 9.48759C1.98605 8.48482 2.3727 7.66249 3.06558 6.98946C3.71823 6.35551 4.52852 5.97673 5.41621 5.89062C5.93496 5.84035 14.9827 5.83744 15.5095 5.88738ZM15.6372 7.61324C15.3305 7.73113 15.0471 8.00259 14.9053 8.31432C14.5092 9.18476 15.1129 10.173 16.0731 10.2259C16.5352 10.2514 17.0073 10.0146 17.2623 9.62963C17.4276 9.3799 17.486 9.16803 17.483 8.82845C17.4748 7.9146 16.5082 7.27826 15.6372 7.61324ZM9.76203 9.14806C8.57464 9.31388 7.538 9.83134 6.68609 10.6834C5.76925 11.6004 5.26116 12.684 5.12336 14.0162C4.99102 15.2954 5.39629 16.7173 6.18989 17.758C6.43031 18.0733 6.92544 18.5685 7.24064 18.8089C8.28113 19.6027 9.70279 20.008 10.9817 19.8757C12.3137 19.7379 13.3971 19.2297 14.3139 18.3126C15.2308 17.3957 15.7388 16.3121 15.8766 14.9798C15.9853 13.9298 15.7294 12.7554 15.1865 11.8121C14.087 9.90166 11.9348 8.84465 9.76203 9.14806ZM11.32 11.0552C12.5947 11.3593 13.6381 12.4029 13.9422 13.6779C14.0556 14.1535 14.0556 14.8426 13.9422 15.3181C13.7 16.3336 12.9888 17.217 12.0444 17.6753C11.5297 17.9251 11.0915 18.024 10.5 18.024C9.90848 18.024 9.47033 17.9251 8.95559 17.6753C8.0112 17.217 7.3 16.3336 7.05782 15.3181C6.94442 14.8426 6.94442 14.1535 7.05782 13.6779C7.35949 12.4129 8.39872 11.3663 9.65954 11.0577C10.1207 10.9449 10.8527 10.9437 11.32 11.0552Z" fill="white"/>
</svg>
