<svg width="21" height="21" viewBox="0 0 21 21" fill="none" xmlns="http://www.w3.org/2000/svg">
<path fill-rule="evenodd" clip-rule="evenodd" d="M5.00623 0.0628201C2.43117 0.41908 0.41028 2.45585 0.0636806 5.04423C-0.0212269 5.67839 -0.0212269 15.3177 0.0636806 15.9518C0.235299 17.2333 0.800707 18.379 1.71062 19.2891C2.61804 20.1967 3.76952 20.7651 5.04723 20.9363C5.68127 21.0212 15.3187 21.0212 15.9528 20.9363C18.5592 20.5871 20.5872 18.5588 20.9363 15.9518C21.0212 15.3177 21.0212 5.67839 20.9363 5.04423C20.5872 2.43727 18.5592 0.408911 15.9528 0.0597447C15.3442 -0.0217752 5.59792 -0.0190278 5.00623 0.0628201ZM15.5095 1.88738C16.5121 1.98247 17.3343 2.3692 18.0072 3.0622C18.6642 3.73884 19.0168 4.51505 19.109 5.48759C19.1648 6.07586 19.1648 14.9202 19.109 15.5085C19.0168 16.481 18.6642 17.2572 18.0072 17.9338C17.3343 18.6268 16.5121 19.0136 15.5095 19.1087C14.9213 19.1644 6.07866 19.1644 5.4905 19.1087C4.48793 19.0136 3.66575 18.6268 2.99284 17.9338C2.33581 17.2572 1.98318 16.481 1.89097 15.5085C1.83522 14.9202 1.83522 6.07586 1.89097 5.48759C1.98605 4.48482 2.3727 3.66249 3.06558 2.98946C3.71823 2.35551 4.52852 1.97673 5.41621 1.89062C5.93496 1.84035 14.9827 1.83744 15.5095 1.88738ZM15.6372 3.61324C15.3305 3.73113 15.0471 4.00259 14.9053 4.31432C14.5092 5.18476 15.1129 6.17296 16.0731 6.2259C16.5352 6.2514 17.0073 6.01464 17.2623 5.62963C17.4276 5.3799 17.486 5.16803 17.483 4.82845C17.4748 3.9146 16.5082 3.27826 15.6372 3.61324ZM9.76203 5.14806C8.57464 5.31388 7.538 5.83134 6.68609 6.6834C5.76925 7.60038 5.26116 8.68396 5.12336 10.0162C4.99102 11.2954 5.39629 12.7173 6.18989 13.758C6.43031 14.0733 6.92544 14.5685 7.24064 14.8089C8.28113 15.6027 9.70279 16.008 10.9817 15.8757C12.3137 15.7379 13.3971 15.2297 14.3139 14.3126C15.2308 13.3957 15.7388 12.3121 15.8766 10.9798C15.9853 9.9298 15.7294 8.75543 15.1865 7.81213C14.087 5.90166 11.9348 4.84465 9.76203 5.14806ZM11.32 7.0552C12.5947 7.35934 13.6381 8.40291 13.9422 9.67791C14.0556 10.1535 14.0556 10.8426 13.9422 11.3181C13.7 12.3336 12.9888 13.217 12.0444 13.6753C11.5297 13.9251 11.0915 14.024 10.5 14.024C9.90848 14.024 9.47033 13.9251 8.9556 13.6753C8.0112 13.217 7.3 12.3336 7.05783 11.3181C6.94442 10.8426 6.94442 10.1535 7.05783 9.67791C7.35949 8.41287 8.39872 7.36632 9.65954 7.0577C10.1207 6.94486 10.8527 6.94375 11.32 7.0552Z" fill="white"/>
</svg>
