<svg width="21" height="21" viewBox="0 0 21 21" fill="none" xmlns="http://www.w3.org/2000/svg">
<path d="M15.2969 21C15.5758 21.0016 15.8521 20.9476 16.1099 20.8413C16.3677 20.7349 16.6017 20.5783 16.7982 20.3805L19.6434 17.5353C19.839 17.3386 19.9487 17.0725 19.9487 16.7952C19.9487 16.5178 19.839 16.2517 19.6434 16.055L15.4439 11.8554C15.2472 11.6599 14.9811 11.5501 14.7037 11.5501C14.4264 11.5501 14.1603 11.6599 13.9636 11.8554L12.2837 13.5248C11.1207 13.2147 10.0436 12.6438 9.13406 11.8554C8.34782 10.9445 7.77722 9.86785 7.46474 8.70577L9.13406 7.02595C9.32961 6.82924 9.43936 6.56315 9.43936 6.28578C9.43936 6.00842 9.32961 5.74232 9.13406 5.54561L4.93451 1.34606C4.7378 1.15051 4.4717 1.04076 4.19434 1.04076C3.91697 1.04076 3.65088 1.15051 3.45417 1.34606L0.619469 4.20175C0.421704 4.39834 0.265074 4.63234 0.158722 4.89011C0.0523694 5.14788 -0.00157562 5.42425 3.50313e-05 5.70309C0.095284 9.73707 1.70723 13.587 4.51455 16.4854C7.413 19.2928 11.2629 20.9047 15.2969 21ZM4.19959 3.58232L6.9188 6.30153L5.56444 7.65589C5.43617 7.77604 5.34011 7.92648 5.28508 8.0934C5.23005 8.26033 5.21781 8.4384 5.24948 8.61128C5.64189 10.365 6.47271 11.9905 7.66422 13.3358C9.00845 14.5288 10.6344 15.3599 12.3887 15.7505C12.559 15.7861 12.7354 15.7788 12.9022 15.7294C13.069 15.6799 13.2208 15.5898 13.3441 15.4671L14.6985 14.0812L17.4177 16.8004L15.3179 18.9002C11.8362 18.8105 8.51411 17.421 6.0054 15.0051C3.58321 12.4954 2.18969 9.16889 2.09981 5.6821L4.19959 3.58232ZM18.898 9.45119H20.9978C21.025 8.20288 20.7992 6.96197 20.334 5.80326C19.8688 4.64455 19.1738 3.59202 18.2909 2.70912C17.408 1.82622 16.3555 1.13121 15.1967 0.665994C14.038 0.200775 12.7971 -0.0250258 11.5488 0.00219913V2.10198C12.523 2.06828 13.4937 2.23532 14.4006 2.59273C15.3075 2.95014 16.1312 3.49026 16.8205 4.17954C17.5097 4.86881 18.0499 5.69249 18.4073 6.59939C18.7647 7.50628 18.9317 8.477 18.898 9.45119Z" fill="#7D2670"/>
<path d="M11.5488 6.30153C13.7536 6.30153 14.6985 7.24643 14.6985 9.45119H16.7982C16.7982 6.07055 14.9294 4.20175 11.5488 4.20175V6.30153Z" fill="#7D2670"/>
</svg>
