<svg width="129" height="129" viewBox="0 0 129 129" fill="none" xmlns="http://www.w3.org/2000/svg">
<path d="M59.021 5.37276L71.1363 14.2325L85.1613 8.88648L92.2327 22.1255L107.188 23.3941L107.815 38.3903L120.739 46.0222L114.798 59.8053L123.131 72.289L111.797 82.1291L113.888 96.992L99.4075 100.94L94.8428 115.239L80.0831 112.513L69.7666 123.415L57.6512 114.555L43.6263 119.901L36.5548 106.662L21.5993 105.393L20.9723 90.3972L8.04819 82.7652L13.9899 68.9821L5.65705 56.4985L16.9906 46.6583L14.8994 31.7954L29.3801 27.8472L33.9448 13.5489L48.7045 16.2746L59.021 5.37276Z" fill="#FFFF23"/>
<path d="M16.1702 61.0376L24.9326 72.5708C25.1725 72.8783 25.2569 73.0729 25.3045 73.2465C25.3521 73.4201 25.3288 73.6753 25.2476 73.9465C25.033 74.7519 24.4792 75.6815 23.9089 76.2112C23.3467 76.7698 22.7237 77.2206 22.2058 77.4871L24.1761 80.9285C25.2438 80.5113 26.7291 79.5751 27.8685 77.8316C29.071 75.9776 29.8198 73.3769 30.2978 67.1798L31.0411 56.9593L26.3542 58.2447L26.4936 65.6723C26.5212 66.5668 26.5754 67.6719 26.616 68.5006L26.5003 68.5324C26.1204 67.8277 25.5375 66.8366 25.0839 66.09L21.0597 59.6967L16.1702 61.0376ZM45.5234 64.3107C44.9373 64.7825 44.1749 65.1783 43.1333 65.4639C40.9924 66.0511 38.8756 65.1384 38.1694 62.5635C37.5057 60.2569 38.5579 58.1952 40.8725 57.5604C42.0297 57.2431 42.8664 57.2313 43.4507 57.32L43.2484 53.8603C42.2274 53.767 40.8989 53.9136 39.7416 54.231C34.476 55.6751 32.5691 59.8376 33.7037 63.9749C34.9177 68.4014 38.6094 70.4064 43.1806 69.1528C44.8587 68.6926 46.2548 67.9986 46.9329 67.4082L45.5234 64.3107ZM45.5623 52.9768L49.4423 67.1244L53.8399 65.9184L50.8883 55.1558L55.228 53.9656L58.1797 64.7282L62.6062 63.5142L58.7262 49.3666L45.5623 52.9768ZM77.0842 53.4465C77.0548 53.1124 76.9591 52.4231 76.7528 51.6709C75.7927 48.1702 73.0809 45.0877 68.5096 46.3413C63.5913 47.6902 62.4505 52.2648 63.4344 55.8523C64.6484 60.2789 68.1586 62.3025 72.9613 60.9854C74.8708 60.4617 76.5563 59.6884 77.8362 58.6841L76.4403 55.8628C75.3652 56.5932 74.2056 57.129 72.7012 57.5416C70.647 58.1049 68.5863 57.7368 67.9707 55.9459L77.0842 53.4465ZM67.1166 52.9449C66.9149 51.7559 67.199 49.8426 69.0506 49.3348C71.0759 48.7794 72.0307 50.4462 72.3243 51.5167L67.1166 52.9449ZM77.5172 44.2132L81.3971 58.3608L86.7495 56.8929C87.1302 54.4243 87.5262 51.6715 87.8835 49.4582C88.0972 47.9687 88.1904 46.9476 88.3196 45.2635L88.4353 45.2318C89.1079 48.2514 89.2461 49.209 89.8491 51.4078L91.0314 55.7186L95.1976 54.576L91.3176 40.4284L85.9363 41.9042L84.854 48.7337C84.6404 50.2232 84.5658 51.4258 84.3447 53.2284L84.221 53.2312C83.8131 51.29 83.4924 49.667 82.8735 47.4104L81.6833 43.0706L77.5172 44.2132ZM78.6629 37.6152C79.461 40.0716 81.1704 41.3137 83.8321 40.5837C86.3202 39.9014 87.5306 38.0762 86.9663 35.338L84.1888 36.0997C84.4432 37.3676 84.2025 38.3046 83.3345 38.5426C82.5245 38.7648 81.8184 38.1185 81.4403 36.8535L78.6629 37.6152Z" fill="black"/>
<path d="M38.5165 82.6173L39.6738 82.2998C41.0046 81.9347 42.1115 81.9629 42.3866 82.9659C42.5824 83.6795 42.0222 84.4346 40.7106 84.7944C39.7603 85.0344 38.6832 85.0395 37.9269 84.8529L37.8049 86.5248C38.8788 86.8108 40.2119 86.7562 41.427 86.4229C43.3557 85.8938 45.62 84.5468 45.0222 82.3673C44.6412 80.9786 43.2005 80.565 41.9151 80.7932L41.8992 80.7354C42.8054 80.2586 43.7143 79.2627 43.3862 78.0669C42.873 76.196 40.775 76.1079 39.1741 76.5471C37.9783 76.8751 36.7847 77.5136 35.9124 78.4165L36.8194 79.6816C37.3694 79.116 38.1633 78.6079 38.9541 78.391C40.0149 78.1 40.773 78.369 40.9582 79.044C41.1434 79.7191 40.534 80.4462 39.2225 80.806L38.1038 81.1129L38.5165 82.6173ZM53.4816 76.8529C52.9155 74.7892 51.5238 73.1178 48.5149 73.9432C47.0298 74.3506 45.9258 75.089 45.3478 75.7038L46.234 77.1198C46.7594 76.5401 47.6444 75.9863 48.5702 75.7323C50.2289 75.2773 50.7601 76.2308 50.9294 76.848L50.9717 77.0023C47.4947 77.9353 45.7257 79.7272 46.3712 82.0802C46.7627 83.5075 48.1992 84.5859 50.0893 84.0674C51.3237 83.7288 52.1645 82.9382 52.5228 82.0518L52.5807 82.0359L53.04 83.0298L55.1809 82.4426C54.9064 81.8957 54.6403 81.0769 54.4075 80.2283L53.4816 76.8529ZM51.8073 79.8216C51.855 79.9952 51.9026 80.1688 51.8923 80.3583C51.8461 81.0968 51.3403 81.8992 50.3759 82.1638C49.6237 82.3701 48.9094 82.1098 48.6554 81.184C48.2639 79.7567 49.7695 78.9704 51.4528 78.5294L51.8073 79.8216ZM54.9536 72.4051L57.5303 81.7981L59.9027 81.1473L58.8286 77.2319L59.1372 77.1473C60.3523 76.8139 61.2353 77.2354 62.1105 78.3848C62.7064 79.196 63.1669 79.8163 63.5287 80.1526L65.9975 79.4753C65.3264 78.7677 64.7181 77.8354 64.233 77.2011C63.1838 75.8713 62.1179 75.0853 60.7728 75.2469L63.3823 70.0929L60.5663 70.8654L58.7419 75.5551L58.3948 75.6503L57.326 71.7543L54.9536 72.4051ZM73.24 71.4328C72.6738 69.3691 71.2821 67.6977 68.2733 68.5231C66.7881 68.9305 65.6841 69.6689 65.1062 70.2837L65.9923 71.6997C66.5177 71.12 67.4027 70.5662 68.3285 70.3122C69.9873 69.8572 70.5184 70.8107 70.6877 71.4279L70.73 71.5822C67.253 72.5152 65.484 74.3071 66.1295 76.6601C66.521 78.0874 67.9575 79.1658 69.8477 78.6473C71.0821 78.3087 71.9229 77.5181 72.2812 76.6317L72.339 76.6158L72.7983 77.6097L74.9392 77.0225C74.6648 76.4756 74.3987 75.6568 74.1659 74.8082L73.24 71.4328ZM71.5657 74.4015C71.6133 74.5751 71.6609 74.7487 71.6507 74.9382C71.6044 75.6767 71.0987 76.4791 70.1343 76.7437C69.3821 76.95 68.6678 76.6897 68.4138 75.7639C68.0223 74.3366 69.5279 73.5503 71.2112 73.1093L71.5657 74.4015ZM77.0349 72.0509L78.1922 71.7335C79.523 71.3684 80.6299 71.3966 80.905 72.3995C81.1008 73.1132 80.5406 73.8683 79.2291 74.228C78.2787 74.468 77.2017 74.4731 76.4454 74.2865L76.3233 75.9584C77.3972 76.2445 78.7303 76.1899 79.9454 75.8566C81.8741 75.3275 84.1385 73.9805 83.5406 71.801C83.1596 70.4123 81.7189 69.9987 80.4335 70.2269L80.4176 70.169C81.3238 69.6923 82.2327 68.6964 81.9046 67.5005C81.3914 65.6297 79.2934 65.5416 77.6925 65.9807C76.4967 66.3087 75.3031 66.9472 74.4309 67.8502L75.3379 69.1153C75.8878 68.5496 76.6817 68.0415 77.4725 67.8246C78.5333 67.5336 79.2915 67.8026 79.4766 68.4777C79.6618 69.1527 79.0525 69.8798 77.7409 70.2396L76.6222 70.5465L77.0349 72.0509ZM92 66.2866C91.4339 64.2228 90.0422 62.5515 87.0333 63.3769C85.5482 63.7843 84.4442 64.5226 83.8662 65.1374L84.7524 66.5534C85.2778 65.9738 86.1628 65.4199 87.0886 65.166C88.7473 64.711 89.2785 65.6644 89.4478 66.2816L89.4901 66.4359C86.0131 67.369 84.2441 69.1608 84.8896 71.5139C85.2811 72.9411 86.7176 74.0196 88.6077 73.501C89.8421 73.1624 90.6829 72.3718 91.0412 71.4855L91.0991 71.4696L91.5584 72.4635L93.6993 71.8762C93.4248 71.3293 93.1588 70.5105 92.926 69.6619L92 66.2866ZM90.3257 69.2553C90.3734 69.4289 90.421 69.6025 90.4107 69.7919C90.3645 70.5305 89.8587 71.3329 88.8943 71.5974C88.1421 71.8037 87.4278 71.5434 87.1739 70.6176C86.7823 69.1904 88.288 68.404 89.9713 67.963L90.3257 69.2553ZM92.2233 62.1813L92.726 64.0136L95.542 63.2411L97.616 70.8018L99.9884 70.151L97.9143 62.5903L100.73 61.8178L100.228 59.9855L92.2233 62.1813ZM101.59 59.6119L104.15 68.947C105.026 68.8107 106.044 68.5934 107.047 68.3183C108.455 67.932 110.172 67.2331 111.057 66.0776C111.609 65.3663 111.866 64.4871 111.569 63.4071C110.881 60.8997 108.41 60.8104 106.25 61.403C105.748 61.5405 105.161 61.7431 104.777 61.9314L103.962 58.9611L101.59 59.6119ZM105.202 63.5568C105.514 63.409 105.831 63.2805 106.256 63.1641C107.297 62.8784 108.848 62.7849 109.223 64.1543C109.583 65.4658 108.314 66.2079 107.196 66.5148C106.713 66.6471 106.399 66.7125 106.08 66.7585L105.202 63.5568Z" fill="black"/>
</svg>
